<?xml version="1.0" encoding="UTF-8" standalone="no"?><svg xmlns="http://www.w3.org/2000/svg" xmlns:xlink="http://www.w3.org/1999/xlink" contentScriptType="application/ecmascript" contentStyleType="text/css" height="574px" preserveAspectRatio="none" style="width:1167px;height:574px;" version="1.1" viewBox="0 0 1167 574" width="1167px" zoomAndPan="magnify"><defs><filter height="300%" id="f1me7bk38rwybm" width="300%" x="-1" y="-1"><feGaussianBlur result="blurOut" stdDeviation="2.0"/><feColorMatrix in="blurOut" result="blurOut2" type="matrix" values="0 0 0 0 0 0 0 0 0 0 0 0 0 0 0 0 0 0 .4 0"/><feOffset dx="4.0" dy="4.0" in="blurOut2" result="blurOut3"/><feBlend in="SourceGraphic" in2="blurOut3" mode="normal"/></filter></defs><g><!--cluster shapes--><polygon fill="#FFFFFF" filter="url(#f1me7bk38rwybm)" points="22,24,79,24,86,47.6094,1145,47.6094,1145,379,22,379,22,24" style="stroke: #000000; stroke-width: 1.5;"/><line style="stroke: #000000; stroke-width: 1.5;" x1="22" x2="86" y1="47.6094" y2="47.6094"/><text fill="#000000" font-family="sans-serif" font-size="14" font-weight="bold" lengthAdjust="spacingAndGlyphs" textLength="51" x="26" y="40.5332">shapes</text><!--cluster factory--><polygon fill="#FFFFFF" filter="url(#f1me7bk38rwybm)" points="46,68,100,68,107,91.6094,291,91.6094,291,229,46,229,46,68" style="stroke: #000000; stroke-width: 1.5;"/><line style="stroke: #000000; stroke-width: 1.5;" x1="46" x2="107" y1="91.6094" y2="91.6094"/><text fill="#000000" font-family="sans-serif" font-size="14" font-weight="bold" lengthAdjust="spacingAndGlyphs" textLength="48" x="50" y="84.5332">factory</text><!--cluster circle--><polygon fill="#FFFFFF" filter="url(#f1me7bk38rwybm)" points="315,84.5,360,84.5,367,108.1094,471,108.1094,471,212.5,315,212.5,315,84.5" style="stroke: #000000; stroke-width: 1.5;"/><line style="stroke: #000000; stroke-width: 1.5;" x1="315" x2="367" y1="108.1094" y2="108.1094"/><text fill="#000000" font-family="sans-serif" font-size="14" font-weight="bold" lengthAdjust="spacingAndGlyphs" textLength="39" x="319" y="101.0332">circle</text><!--cluster square--><polygon fill="#FFFFFF" filter="url(#f1me7bk38rwybm)" points="495,95.5,550,95.5,557,119.1094,599,119.1094,599,201.5,495,201.5,495,95.5" style="stroke: #000000; stroke-width: 1.5;"/><line style="stroke: #000000; stroke-width: 1.5;" x1="495" x2="557" y1="119.1094" y2="119.1094"/><text fill="#000000" font-family="sans-serif" font-size="14" font-weight="bold" lengthAdjust="spacingAndGlyphs" textLength="49" x="499" y="112.0332">square</text><!--cluster triangle--><polygon fill="#FFFFFF" filter="url(#f1me7bk38rwybm)" points="623,81.5,683,81.5,690,105.1094,733,105.1094,733,215.5,623,215.5,623,81.5" style="stroke: #000000; stroke-width: 1.5;"/><line style="stroke: #000000; stroke-width: 1.5;" x1="623" x2="690" y1="105.1094" y2="105.1094"/><text fill="#000000" font-family="sans-serif" font-size="14" font-weight="bold" lengthAdjust="spacingAndGlyphs" textLength="54" x="627" y="98.0332">triangle</text><!--cluster right_triangle--><polygon fill="#FFFFFF" filter="url(#f1me7bk38rwybm)" points="757,77.5,858,77.5,865,101.1094,929,101.1094,929,219.5,757,219.5,757,77.5" style="stroke: #000000; stroke-width: 1.5;"/><line style="stroke: #000000; stroke-width: 1.5;" x1="757" x2="865" y1="101.1094" y2="101.1094"/><text fill="#000000" font-family="sans-serif" font-size="14" font-weight="bold" lengthAdjust="spacingAndGlyphs" textLength="95" x="761" y="94.0332">right_triangle</text><!--cluster equilateral_triangle--><polygon fill="#FFFFFF" filter="url(#f1me7bk38rwybm)" points="953,84.5,1096,84.5,1103,108.1094,1121,108.1094,1121,212.5,953,212.5,953,84.5" style="stroke: #000000; stroke-width: 1.5;"/><line style="stroke: #000000; stroke-width: 1.5;" x1="953" x2="1103" y1="108.1094" y2="108.1094"/><text fill="#000000" font-family="sans-serif" font-size="14" font-weight="bold" lengthAdjust="spacingAndGlyphs" textLength="137" x="957" y="101.0332">equilateral_triangle</text><!--cluster std::fmt--><polygon fill="#FFFFFF" filter="url(#f1me7bk38rwybm)" points="597,448,655,448,662,471.6094,805,471.6094,805,562,597,562,597,448" style="stroke: #000000; stroke-width: 1.5;"/><line style="stroke: #000000; stroke-width: 1.5;" x1="597" x2="662" y1="471.6094" y2="471.6094"/><text fill="#000000" font-family="sans-serif" font-size="14" font-weight="bold" lengthAdjust="spacingAndGlyphs" textLength="52" x="601" y="464.5332">std::fmt</text><!--class Shape--><rect fill="#FEFECE" filter="url(#f1me7bk38rwybm)" height="89.6953" id="Shape" style="stroke: #A80036; stroke-width: 1.5;" width="96" x="339" y="273"/><ellipse cx="366.6" cy="293.0938" fill="#FF7700" rx="11" ry="11" style="stroke: #A80036; stroke-width: 1.0;"/><path d="M367.5219,290.4844 L367.5219,297.1406 L368.6781,297.1406 Q369.2875,297.1406 369.5453,297.375 Q369.8031,297.6094 369.8031,298 Q369.8031,298.375 369.5453,298.6094 Q369.2875,298.8438 368.6781,298.8438 L364.6938,298.8438 Q364.0688,298.8438 363.8109,298.6094 Q363.5531,298.375 363.5531,297.9844 Q363.5531,297.6094 363.8109,297.375 Q364.0688,297.1406 364.6938,297.1406 L365.8188,297.1406 L365.8188,290.4844 L363.975,290.4844 L363.975,292.0938 Q363.975,292.7031 363.7406,292.9688 Q363.5063,293.2344 363.1313,293.2344 Q362.7563,293.2344 362.5219,292.9688 Q362.2875,292.7031 362.2875,292.0938 L362.2875,288.7813 L371.1,288.7813 L371.1,292.0938 Q371.1,292.7031 370.8578,292.9688 Q370.6156,293.2344 370.2406,293.2344 Q369.8656,293.2344 369.6313,292.9688 Q369.3969,292.7031 369.3969,292.0938 L369.3969,290.4844 L367.5219,290.4844 Z "/><text fill="#000000" font-family="sans-serif" font-size="12" font-style="italic" lengthAdjust="spacingAndGlyphs" textLength="38" x="382.4" y="290.457">«Trait»</text><text fill="#000000" font-family="sans-serif" font-size="12" lengthAdjust="spacingAndGlyphs" textLength="36" x="383.4" y="305.5508">Shape</text><line style="stroke: #A80036; stroke-width: 1.5;" x1="340" x2="434" y1="313.1875" y2="313.1875"/><text fill="#000000" font-family="sans-serif" font-size="11" lengthAdjust="spacingAndGlyphs" textLength="65" x="345" y="328.6064">+name(&amp;self)</text><text fill="#000000" font-family="sans-serif" font-size="11" lengthAdjust="spacingAndGlyphs" textLength="61" x="345" y="342.4424">+area(&amp;self)</text><text fill="#000000" font-family="sans-serif" font-size="11" lengthAdjust="spacingAndGlyphs" textLength="84" x="345" y="356.2783">+perimeter(&amp;self)</text><!--class KnownShape--><rect fill="#FEFECE" filter="url(#f1me7bk38rwybm)" height="109.1797" id="KnownShape" style="stroke: #A80036; stroke-width: 1.5;" width="106" x="62" y="104"/><ellipse cx="77" cy="120" fill="#EB937F" rx="11" ry="11" style="stroke: #A80036; stroke-width: 1.0;"/><path d="M75.8594,120.7969 L75.8594,123.2969 L80.1875,123.2969 L80.1875,122.375 Q80.1875,121.7656 80.4297,121.5 Q80.6719,121.2344 81.0469,121.2344 Q81.4219,121.2344 81.6563,121.5 Q81.8906,121.7656 81.8906,122.375 L81.8906,125 L73.8906,125 Q73.2656,125 73.0078,124.7656 Q72.75,124.5313 72.75,124.1406 Q72.75,123.7656 73.0156,123.5313 Q73.2813,123.2969 73.8906,123.2969 L74.1563,123.2969 L74.1563,116.6406 L73.8906,116.6406 Q73.2656,116.6406 73.0078,116.4063 Q72.75,116.1719 72.75,115.7813 Q72.75,115.4063 73.0078,115.1719 Q73.2656,114.9375 73.8906,114.9375 L81.5156,114.9375 L81.5156,117.5313 Q81.5156,118.1406 81.2891,118.3984 Q81.0625,118.6563 80.6719,118.6563 Q80.2969,118.6563 80.0625,118.3984 Q79.8281,118.1406 79.8281,117.5313 L79.8281,116.6406 L75.8594,116.6406 L75.8594,119.0938 L77.3438,119.0938 Q77.3438,118.4375 77.4688,118.25 Q77.7344,117.8438 78.2031,117.8438 Q78.5781,117.8438 78.8125,118.1016 Q79.0469,118.3594 79.0469,118.9688 L79.0469,120.9375 Q79.0469,121.4844 78.9219,121.6719 Q78.6563,122.0625 78.2031,122.0625 Q77.7344,122.0625 77.4688,121.6563 Q77.3438,121.4688 77.3438,120.7969 L75.8594,120.7969 Z "/><text fill="#000000" font-family="sans-serif" font-size="12" lengthAdjust="spacingAndGlyphs" textLength="74" x="91" y="124.9102">KnownShape</text><line style="stroke: #A80036; stroke-width: 1.5;" x1="63" x2="167" y1="136" y2="136"/><text fill="#000000" font-family="sans-serif" font-size="11" lengthAdjust="spacingAndGlyphs" textLength="27" x="68" y="151.4189">Circle</text><text fill="#000000" font-family="sans-serif" font-size="11" lengthAdjust="spacingAndGlyphs" textLength="35" x="68" y="165.2549">Square</text><text fill="#000000" font-family="sans-serif" font-size="11" lengthAdjust="spacingAndGlyphs" textLength="38" x="68" y="179.0908">Triangle</text><text fill="#000000" font-family="sans-serif" font-size="11" lengthAdjust="spacingAndGlyphs" textLength="62" x="68" y="192.9268">RightTriangle</text><text fill="#000000" font-family="sans-serif" font-size="11" lengthAdjust="spacingAndGlyphs" textLength="87" x="68" y="206.7627">EquilateralTriangle</text><!--class Factory--><rect fill="#FEFECE" filter="url(#f1me7bk38rwybm)" height="32" id="Factory" style="stroke: #A80036; stroke-width: 1.5;" width="71" x="203.5" y="142.5"/><ellipse cx="218.5" cy="158.5" fill="#ADD1B2" rx="11" ry="11" style="stroke: #A80036; stroke-width: 1.0;"/><path d="M221.2656,154.375 Q221.4219,154.1563 221.6094,154.0469 Q221.7969,153.9375 222.0156,153.9375 Q222.3906,153.9375 222.625,154.1953 Q222.8594,154.4531 222.8594,155.0625 L222.8594,156.5156 Q222.8594,157.125 222.625,157.3906 Q222.3906,157.6563 222.0156,157.6563 Q221.6719,157.6563 221.4688,157.4531 Q221.2656,157.2656 221.1563,156.75 Q221.1094,156.3906 220.9219,156.2031 Q220.5938,155.8281 219.9844,155.6094 Q219.375,155.3906 218.75,155.3906 Q217.9844,155.3906 217.3516,155.7188 Q216.7188,156.0469 216.2266,156.7969 Q215.7344,157.5469 215.7344,158.5781 L215.7344,159.6719 Q215.7344,160.9063 216.625,161.7266 Q217.5156,162.5469 219.1094,162.5469 Q220.0469,162.5469 220.7031,162.2969 Q221.0938,162.1406 221.5156,161.7031 Q221.7813,161.4375 221.9297,161.3594 Q222.0781,161.2813 222.2813,161.2813 Q222.6094,161.2813 222.8672,161.5391 Q223.125,161.7969 223.125,162.1406 Q223.125,162.4844 222.7813,162.8906 Q222.2813,163.4688 221.4844,163.7969 Q220.4063,164.25 219.1094,164.25 Q217.5938,164.25 216.3906,163.625 Q215.4063,163.125 214.7188,162.0547 Q214.0313,160.9844 214.0313,159.7031 L214.0313,158.5469 Q214.0313,157.2188 214.6484,156.0703 Q215.2656,154.9219 216.3594,154.3047 Q217.4531,153.6875 218.6875,153.6875 Q219.4219,153.6875 220.0703,153.8516 Q220.7188,154.0156 221.2656,154.375 Z "/><text fill="#000000" font-family="sans-serif" font-size="12" lengthAdjust="spacingAndGlyphs" textLength="39" x="232.5" y="163.4102">Factory</text><!--class Circle--><rect fill="#FEFECE" filter="url(#f1me7bk38rwybm)" height="75.6719" id="Circle" style="stroke: #A80036; stroke-width: 1.5;" width="124" x="331" y="120.5"/><ellipse cx="373" cy="136.5" fill="#ADD1B2" rx="11" ry="11" style="stroke: #A80036; stroke-width: 1.0;"/><path d="M375.7656,132.375 Q375.9219,132.1563 376.1094,132.0469 Q376.2969,131.9375 376.5156,131.9375 Q376.8906,131.9375 377.125,132.1953 Q377.3594,132.4531 377.3594,133.0625 L377.3594,134.5156 Q377.3594,135.125 377.125,135.3906 Q376.8906,135.6563 376.5156,135.6563 Q376.1719,135.6563 375.9688,135.4531 Q375.7656,135.2656 375.6563,134.75 Q375.6094,134.3906 375.4219,134.2031 Q375.0938,133.8281 374.4844,133.6094 Q373.875,133.3906 373.25,133.3906 Q372.4844,133.3906 371.8516,133.7188 Q371.2188,134.0469 370.7266,134.7969 Q370.2344,135.5469 370.2344,136.5781 L370.2344,137.6719 Q370.2344,138.9063 371.125,139.7266 Q372.0156,140.5469 373.6094,140.5469 Q374.5469,140.5469 375.2031,140.2969 Q375.5938,140.1406 376.0156,139.7031 Q376.2813,139.4375 376.4297,139.3594 Q376.5781,139.2813 376.7813,139.2813 Q377.1094,139.2813 377.3672,139.5391 Q377.625,139.7969 377.625,140.1406 Q377.625,140.4844 377.2813,140.8906 Q376.7813,141.4688 375.9844,141.7969 Q374.9063,142.25 373.6094,142.25 Q372.0938,142.25 370.8906,141.625 Q369.9063,141.125 369.2188,140.0547 Q368.5313,138.9844 368.5313,137.7031 L368.5313,136.5469 Q368.5313,135.2188 369.1484,134.0703 Q369.7656,132.9219 370.8594,132.3047 Q371.9531,131.6875 373.1875,131.6875 Q373.9219,131.6875 374.5703,131.8516 Q375.2188,132.0156 375.7656,132.375 Z "/><text fill="#000000" font-family="sans-serif" font-size="12" lengthAdjust="spacingAndGlyphs" textLength="32" x="393" y="141.4102">Circle</text><line style="stroke: #A80036; stroke-width: 1.5;" x1="332" x2="454" y1="152.5" y2="152.5"/><text fill="#000000" font-family="sans-serif" font-size="11" lengthAdjust="spacingAndGlyphs" textLength="58" x="337" y="167.9189">+radius: f64</text><line style="stroke: #A80036; stroke-width: 1.5;" x1="332" x2="454" y1="174.3359" y2="174.3359"/><text fill="#000000" font-family="sans-serif" font-size="11" lengthAdjust="spacingAndGlyphs" textLength="112" x="337" y="189.7549">+diameter(&amp;self) -&gt; f64</text><!--class Square--><rect fill="#FEFECE" filter="url(#f1me7bk38rwybm)" height="53.8359" id="Square" style="stroke: #A80036; stroke-width: 1.5;" width="72" x="511" y="131.5"/><ellipse cx="526" cy="147.5" fill="#ADD1B2" rx="11" ry="11" style="stroke: #A80036; stroke-width: 1.0;"/><path d="M528.7656,143.375 Q528.9219,143.1563 529.1094,143.0469 Q529.2969,142.9375 529.5156,142.9375 Q529.8906,142.9375 530.125,143.1953 Q530.3594,143.4531 530.3594,144.0625 L530.3594,145.5156 Q530.3594,146.125 530.125,146.3906 Q529.8906,146.6563 529.5156,146.6563 Q529.1719,146.6563 528.9688,146.4531 Q528.7656,146.2656 528.6563,145.75 Q528.6094,145.3906 528.4219,145.2031 Q528.0938,144.8281 527.4844,144.6094 Q526.875,144.3906 526.25,144.3906 Q525.4844,144.3906 524.8516,144.7188 Q524.2188,145.0469 523.7266,145.7969 Q523.2344,146.5469 523.2344,147.5781 L523.2344,148.6719 Q523.2344,149.9063 524.125,150.7266 Q525.0156,151.5469 526.6094,151.5469 Q527.5469,151.5469 528.2031,151.2969 Q528.5938,151.1406 529.0156,150.7031 Q529.2813,150.4375 529.4297,150.3594 Q529.5781,150.2813 529.7813,150.2813 Q530.1094,150.2813 530.3672,150.5391 Q530.625,150.7969 530.625,151.1406 Q530.625,151.4844 530.2813,151.8906 Q529.7813,152.4688 528.9844,152.7969 Q527.9063,153.25 526.6094,153.25 Q525.0938,153.25 523.8906,152.625 Q522.9063,152.125 522.2188,151.0547 Q521.5313,149.9844 521.5313,148.7031 L521.5313,147.5469 Q521.5313,146.2188 522.1484,145.0703 Q522.7656,143.9219 523.8594,143.3047 Q524.9531,142.6875 526.1875,142.6875 Q526.9219,142.6875 527.5703,142.8516 Q528.2188,143.0156 528.7656,143.375 Z "/><text fill="#000000" font-family="sans-serif" font-size="12" lengthAdjust="spacingAndGlyphs" textLength="40" x="540" y="152.4102">Square</text><line style="stroke: #A80036; stroke-width: 1.5;" x1="512" x2="582" y1="163.5" y2="163.5"/><text fill="#000000" font-family="sans-serif" font-size="11" lengthAdjust="spacingAndGlyphs" textLength="48" x="517" y="178.9189">+side: f64</text><!--class Triangle--><rect fill="#FEFECE" filter="url(#f1me7bk38rwybm)" height="81.5078" id="Triangle" style="stroke: #A80036; stroke-width: 1.5;" width="77" x="639.5" y="117.5"/><ellipse cx="654.5" cy="133.5" fill="#ADD1B2" rx="11" ry="11" style="stroke: #A80036; stroke-width: 1.0;"/><path d="M657.2656,129.375 Q657.4219,129.1563 657.6094,129.0469 Q657.7969,128.9375 658.0156,128.9375 Q658.3906,128.9375 658.625,129.1953 Q658.8594,129.4531 658.8594,130.0625 L658.8594,131.5156 Q658.8594,132.125 658.625,132.3906 Q658.3906,132.6563 658.0156,132.6563 Q657.6719,132.6563 657.4688,132.4531 Q657.2656,132.2656 657.1563,131.75 Q657.1094,131.3906 656.9219,131.2031 Q656.5938,130.8281 655.9844,130.6094 Q655.375,130.3906 654.75,130.3906 Q653.9844,130.3906 653.3516,130.7188 Q652.7188,131.0469 652.2266,131.7969 Q651.7344,132.5469 651.7344,133.5781 L651.7344,134.6719 Q651.7344,135.9063 652.625,136.7266 Q653.5156,137.5469 655.1094,137.5469 Q656.0469,137.5469 656.7031,137.2969 Q657.0938,137.1406 657.5156,136.7031 Q657.7813,136.4375 657.9297,136.3594 Q658.0781,136.2813 658.2813,136.2813 Q658.6094,136.2813 658.8672,136.5391 Q659.125,136.7969 659.125,137.1406 Q659.125,137.4844 658.7813,137.8906 Q658.2813,138.4688 657.4844,138.7969 Q656.4063,139.25 655.1094,139.25 Q653.5938,139.25 652.3906,138.625 Q651.4063,138.125 650.7188,137.0547 Q650.0313,135.9844 650.0313,134.7031 L650.0313,133.5469 Q650.0313,132.2188 650.6484,131.0703 Q651.2656,129.9219 652.3594,129.3047 Q653.4531,128.6875 654.6875,128.6875 Q655.4219,128.6875 656.0703,128.8516 Q656.7188,129.0156 657.2656,129.375 Z "/><text fill="#000000" font-family="sans-serif" font-size="12" lengthAdjust="spacingAndGlyphs" textLength="45" x="668.5" y="138.4102">Triangle</text><line style="stroke: #A80036; stroke-width: 1.5;" x1="640.5" x2="715.5" y1="149.5" y2="149.5"/><text fill="#000000" font-family="sans-serif" font-size="11" lengthAdjust="spacingAndGlyphs" textLength="60" x="645.5" y="164.9189">+side_a: f64</text><text fill="#000000" font-family="sans-serif" font-size="11" lengthAdjust="spacingAndGlyphs" textLength="60" x="645.5" y="178.7549">+side_b: f64</text><text fill="#000000" font-family="sans-serif" font-size="11" lengthAdjust="spacingAndGlyphs" textLength="60" x="645.5" y="192.5908">+side_c: f64</text><!--class RightTriangle--><rect fill="#FEFECE" filter="url(#f1me7bk38rwybm)" height="89.5078" id="RightTriangle" style="stroke: #A80036; stroke-width: 1.5;" width="140" x="773" y="113.5"/><ellipse cx="803.3" cy="129.5" fill="#ADD1B2" rx="11" ry="11" style="stroke: #A80036; stroke-width: 1.0;"/><path d="M806.0656,125.375 Q806.2219,125.1563 806.4094,125.0469 Q806.5969,124.9375 806.8156,124.9375 Q807.1906,124.9375 807.425,125.1953 Q807.6594,125.4531 807.6594,126.0625 L807.6594,127.5156 Q807.6594,128.125 807.425,128.3906 Q807.1906,128.6563 806.8156,128.6563 Q806.4719,128.6563 806.2688,128.4531 Q806.0656,128.2656 805.9563,127.75 Q805.9094,127.3906 805.7219,127.2031 Q805.3938,126.8281 804.7844,126.6094 Q804.175,126.3906 803.55,126.3906 Q802.7844,126.3906 802.1516,126.7188 Q801.5188,127.0469 801.0266,127.7969 Q800.5344,128.5469 800.5344,129.5781 L800.5344,130.6719 Q800.5344,131.9063 801.425,132.7266 Q802.3156,133.5469 803.9094,133.5469 Q804.8469,133.5469 805.5031,133.2969 Q805.8938,133.1406 806.3156,132.7031 Q806.5813,132.4375 806.7297,132.3594 Q806.8781,132.2813 807.0813,132.2813 Q807.4094,132.2813 807.6672,132.5391 Q807.925,132.7969 807.925,133.1406 Q807.925,133.4844 807.5813,133.8906 Q807.0813,134.4688 806.2844,134.7969 Q805.2063,135.25 803.9094,135.25 Q802.3938,135.25 801.1906,134.625 Q800.2063,134.125 799.5188,133.0547 Q798.8313,131.9844 798.8313,130.7031 L798.8313,129.5469 Q798.8313,128.2188 799.4484,127.0703 Q800.0656,125.9219 801.1594,125.3047 Q802.2531,124.6875 803.4875,124.6875 Q804.2219,124.6875 804.8703,124.8516 Q805.5188,125.0156 806.0656,125.375 Z "/><text fill="#000000" font-family="sans-serif" font-size="12" lengthAdjust="spacingAndGlyphs" textLength="74" x="820.7" y="134.4102">RightTriangle</text><line style="stroke: #A80036; stroke-width: 1.5;" x1="774" x2="912" y1="145.5" y2="145.5"/><text fill="#000000" font-family="sans-serif" font-size="11" lengthAdjust="spacingAndGlyphs" textLength="52" x="779" y="160.9189">+base: f64</text><text fill="#000000" font-family="sans-serif" font-size="11" lengthAdjust="spacingAndGlyphs" textLength="57" x="779" y="174.7549">+height: f64</text><line style="stroke: #A80036; stroke-width: 1.5;" x1="774" x2="912" y1="181.1719" y2="181.1719"/><text fill="#000000" font-family="sans-serif" font-size="11" lengthAdjust="spacingAndGlyphs" textLength="128" x="779" y="196.5908">+hypotenuse(&amp;self) -&gt; f64</text><!--class EquilateralTriangle--><rect fill="#FEFECE" filter="url(#f1me7bk38rwybm)" height="75.6719" id="EquilateralTriangle" style="stroke: #A80036; stroke-width: 1.5;" width="136" x="969" y="120.5"/><ellipse cx="984" cy="136.5" fill="#ADD1B2" rx="11" ry="11" style="stroke: #A80036; stroke-width: 1.0;"/><path d="M986.7656,132.375 Q986.9219,132.1563 987.1094,132.0469 Q987.2969,131.9375 987.5156,131.9375 Q987.8906,131.9375 988.125,132.1953 Q988.3594,132.4531 988.3594,133.0625 L988.3594,134.5156 Q988.3594,135.125 988.125,135.3906 Q987.8906,135.6563 987.5156,135.6563 Q987.1719,135.6563 986.9688,135.4531 Q986.7656,135.2656 986.6563,134.75 Q986.6094,134.3906 986.4219,134.2031 Q986.0938,133.8281 985.4844,133.6094 Q984.875,133.3906 984.25,133.3906 Q983.4844,133.3906 982.8516,133.7188 Q982.2188,134.0469 981.7266,134.7969 Q981.2344,135.5469 981.2344,136.5781 L981.2344,137.6719 Q981.2344,138.9063 982.125,139.7266 Q983.0156,140.5469 984.6094,140.5469 Q985.5469,140.5469 986.2031,140.2969 Q986.5938,140.1406 987.0156,139.7031 Q987.2813,139.4375 987.4297,139.3594 Q987.5781,139.2813 987.7813,139.2813 Q988.1094,139.2813 988.3672,139.5391 Q988.625,139.7969 988.625,140.1406 Q988.625,140.4844 988.2813,140.8906 Q987.7813,141.4688 986.9844,141.7969 Q985.9063,142.25 984.6094,142.25 Q983.0938,142.25 981.8906,141.625 Q980.9063,141.125 980.2188,140.0547 Q979.5313,138.9844 979.5313,137.7031 L979.5313,136.5469 Q979.5313,135.2188 980.1484,134.0703 Q980.7656,132.9219 981.8594,132.3047 Q982.9531,131.6875 984.1875,131.6875 Q984.9219,131.6875 985.5703,131.8516 Q986.2188,132.0156 986.7656,132.375 Z "/><text fill="#000000" font-family="sans-serif" font-size="12" lengthAdjust="spacingAndGlyphs" textLength="104" x="998" y="141.4102">EquilateralTriangle</text><line style="stroke: #A80036; stroke-width: 1.5;" x1="970" x2="1104" y1="152.5" y2="152.5"/><text fill="#000000" font-family="sans-serif" font-size="11" lengthAdjust="spacingAndGlyphs" textLength="48" x="975" y="167.9189">+side: f64</text><line style="stroke: #A80036; stroke-width: 1.5;" x1="970" x2="1104" y1="174.3359" y2="174.3359"/><text fill="#000000" font-family="sans-serif" font-size="11" lengthAdjust="spacingAndGlyphs" textLength="100" x="975" y="189.7549">+height(&amp;self) -&gt; f64</text><!--class Display--><rect fill="#FEFECE" filter="url(#f1me7bk38rwybm)" height="62.0234" id="Display" style="stroke: #A80036; stroke-width: 1.5;" width="176" x="613" y="484"/><ellipse cx="676.25" cy="504.0938" fill="#FF7700" rx="11" ry="11" style="stroke: #A80036; stroke-width: 1.0;"/><path d="M677.1719,501.4844 L677.1719,508.1406 L678.3281,508.1406 Q678.9375,508.1406 679.1953,508.375 Q679.4531,508.6094 679.4531,509 Q679.4531,509.375 679.1953,509.6094 Q678.9375,509.8438 678.3281,509.8438 L674.3438,509.8438 Q673.7188,509.8438 673.4609,509.6094 Q673.2031,509.375 673.2031,508.9844 Q673.2031,508.6094 673.4609,508.375 Q673.7188,508.1406 674.3438,508.1406 L675.4688,508.1406 L675.4688,501.4844 L673.625,501.4844 L673.625,503.0938 Q673.625,503.7031 673.3906,503.9688 Q673.1563,504.2344 672.7813,504.2344 Q672.4063,504.2344 672.1719,503.9688 Q671.9375,503.7031 671.9375,503.0938 L671.9375,499.7813 L680.75,499.7813 L680.75,503.0938 Q680.75,503.7031 680.5078,503.9688 Q680.2656,504.2344 679.8906,504.2344 Q679.5156,504.2344 679.2813,503.9688 Q679.0469,503.7031 679.0469,503.0938 L679.0469,501.4844 L677.1719,501.4844 Z "/><text fill="#000000" font-family="sans-serif" font-size="12" font-style="italic" lengthAdjust="spacingAndGlyphs" textLength="38" x="698.25" y="501.457">«Trait»</text><text fill="#000000" font-family="sans-serif" font-size="12" lengthAdjust="spacingAndGlyphs" textLength="41" x="696.75" y="516.5508">Display</text><line style="stroke: #A80036; stroke-width: 1.5;" x1="614" x2="788" y1="524.1875" y2="524.1875"/><text fill="#000000" font-family="sans-serif" font-size="11" lengthAdjust="spacingAndGlyphs" textLength="164" x="619" y="539.6064">+fmt(&amp;self, f: &amp;mut fmt::Formatter)</text><!--link Circle to Shape--><path d="M391.578,196.825 C390.939,213.593 390.167,233.863 389.44,252.941 " fill="none" id="Circle-Shape" style="stroke: #A80036; stroke-width: 1.0; stroke-dasharray: 7.0,7.0;"/><polygon fill="none" points="396.434,253.233,388.678,272.952,382.445,252.7,396.434,253.233" style="stroke: #A80036; stroke-width: 1.0;"/><!--link Circle to Display--><path d="M436.388,196.574 C453.868,210.391 474.678,225.496 495,237 C532.491,258.224 553.518,243.592 585,273 C614.636,300.684 657.835,402.791 682.291,464.871 " fill="none" id="Circle-Display" style="stroke: #0000FF; stroke-width: 1.0; stroke-dasharray: 7.0,7.0;"/><polygon fill="none" points="688.947,462.673,689.676,483.8499,675.9,467.749,688.947,462.673" style="stroke: #0000FF; stroke-width: 1.0;"/><!--link Square to Shape--><path d="M521.885,185.552 C507.181,200.694 488.181,220.069 471,237 C463.745,244.15 456.078,251.597 448.445,258.945 " fill="none" id="Square-Shape" style="stroke: #A80036; stroke-width: 1.0; stroke-dasharray: 7.0,7.0;"/><polygon fill="none" points="453.211,264.073,433.925,272.85,443.528,253.961,453.211,264.073" style="stroke: #A80036; stroke-width: 1.0;"/><!--link Square to Display--><path d="M572.82,185.623 C604.188,217.47 653.291,267.731 656,273 C687.178,333.643 696.957,412.766 699.91,463.491 " fill="none" id="Square-Display" style="stroke: #0000FF; stroke-width: 1.0; stroke-dasharray: 7.0,7.0;"/><polygon fill="none" points="706.912,463.382,700.809,483.6739,692.925,464.006,706.912,463.382" style="stroke: #0000FF; stroke-width: 1.0;"/><!--link Triangle to Shape--><path d="M643.394,199.642 C630.477,212.853 615.031,226.763 599,237 C554.249,265.579 497.753,286.261 454.338,299.428 " fill="none" id="Triangle-Shape" style="stroke: #A80036; stroke-width: 1.0; stroke-dasharray: 7.0,7.0;"/><polygon fill="none" points="456.257,306.16,435.097,305.036,452.34,292.719,456.257,306.16" style="stroke: #A80036; stroke-width: 1.0;"/><!--link Triangle to Display--><path d="M700.123,199.683 C710.51,220.82 721.745,247.567 727,273 C740.581,338.723 736.406,357.551 727,424 C725.115,437.316 721.735,451.419 718.023,464.412 " fill="none" id="Triangle-Display" style="stroke: #0000FF; stroke-width: 1.0; stroke-dasharray: 7.0,7.0;"/><polygon fill="none" points="724.674,466.599,712.083,483.6424,711.297,462.467,724.674,466.599" style="stroke: #0000FF; stroke-width: 1.0;"/><!--link RightTriangle to Shape--><path d="M789.284,203.567 C772.13,215.885 752.513,228.274 733,237 C641.432,277.946 526.509,299.159 454.897,309.182 " fill="none" id="RightTriangle-Shape" style="stroke: #A80036; stroke-width: 1.0; stroke-dasharray: 7.0,7.0;"/><polygon fill="none" points="455.77,316.128,435.021,311.832,453.92,302.251,455.77,316.128" style="stroke: #A80036; stroke-width: 1.0;"/><!--link RightTriangle to Display--><path d="M830.889,203.571 C815.58,256.909 787.071,348.908 753,424 C746.541,438.235 738.499,453.142 730.685,466.635 " fill="none" id="RightTriangle-Display" style="stroke: #0000FF; stroke-width: 1.0; stroke-dasharray: 7.0,7.0;"/><polygon fill="none" points="736.603,470.379,720.341,483.9638,724.582,463.203,736.603,470.379" style="stroke: #0000FF; stroke-width: 1.0;"/><!--link EquilateralTriangle to Shape--><path d="M995.16,196.677 C976.205,211.545 952.746,227.392 929,237 C767.978,302.154 560.872,315.062 455.374,317.109 " fill="none" id="EquilateralTriangle-Shape" style="stroke: #A80036; stroke-width: 1.0; stroke-dasharray: 7.0,7.0;"/><polygon fill="none" points="455.465,324.108,435.369,317.388,455.269,310.109,455.465,324.108" style="stroke: #A80036; stroke-width: 1.0;"/><!--link EquilateralTriangle to Display--><path d="M1001.677,196.768 C939.49,262.379 810.712,398.247 743.666,468.985 " fill="none" id="EquilateralTriangle-Display" style="stroke: #0000FF; stroke-width: 1.0; stroke-dasharray: 7.0,7.0;"/><polygon fill="none" points="748.408,474.158,729.569,483.858,738.247,464.527,748.408,474.158" style="stroke: #0000FF; stroke-width: 1.0;"/><!--link KnownShape to Shape--><path d="M158.289,213.299 C166.855,221.952 176.237,230.264 186,237 C226.687,265.073 278.666,285.426 319.572,298.576 " fill="none" id="KnownShape-Shape" style="stroke: #A80036; stroke-width: 1.0; stroke-dasharray: 7.0,7.0;"/><polygon fill="none" points="321.9,291.969,338.957,304.541,317.782,305.349,321.9,291.969" style="stroke: #A80036; stroke-width: 1.0;"/><!--link KnownShape to Display--><path d="M154.627,213.077 C163.917,222.417 174.499,231.034 186,237 C297.377,294.773 367.279,195.563 466,273 C508.732,306.519 476.012,344.64 510,387 C538.977,423.115 581.036,452.624 618.315,474.077 " fill="none" id="KnownShape-Display" style="stroke: #0000FF; stroke-width: 1.0; stroke-dasharray: 7.0,7.0;"/><polygon fill="none" points="621.772,467.99,635.874,483.8057,614.987,480.2356,621.772,467.99" style="stroke: #0000FF; stroke-width: 1.0;"/><!--link Factory to Display--><path d="M249.383,174.786 C262.464,192.75 286.689,222.006 315,237 C394.428,279.067 440.289,221.569 514,273 C562.197,306.629 545.705,340.009 581,387 C603.072,416.387 631.131,446.405 654.566,469.874 " fill="none" id="Factory-Display" style="stroke: #0000FF; stroke-width: 1.0; stroke-dasharray: 7.0,7.0;"/><polygon fill="none" points="659.494,464.902,668.826,483.9261,649.667,474.874,659.494,464.902" style="stroke: #0000FF; stroke-width: 1.0;"/><!--
@startuml
skinparam classAttributeIconSize 0
hide empty members

package shapes {
    class Shape << (T,#FF7700) Trait >> {
        + name(&self)
        + area(&self)
        + perimeter(&self)
    }

    package factory {
        enum KnownShape {
            Circle
            Square
            Triangle
            RightTriangle
            EquilateralTriangle
        }
        
        class Factory {
        
        }
    }
    
    package circle {
        class Circle {
            + radius: f64
            + diameter(&self) -> f64
        }
    }
    
    package square {
        class Square {
            + side: f64    
        }
    }
    
    package triangle {
        class Triangle {
            + side_a: f64
            + side_b: f64
            + side_c: f64
        }
    }
    
    package right_triangle {
        class RightTriangle {
            + base: f64
            + height: f64
            + hypotenuse(&self) -> f64
        }
    }
    
    package equilateral_triangle {
    class EquilateralTriangle {
        + side: f64
        + height(&self) -> f64
    }
    }
}

package std::fmt {
    class Display << (T,#FF7700) Trait >> {
        + fmt(&self, f: &mut fmt::Formatter)
    }
}

Circle ..|> Shape
Circle .[#blue]...|> Display

Square ..|> Shape
Square .[#blue]...|> Display

Triangle ..|> Shape
Triangle .[#blue]...|> Display

RightTriangle ..|> Shape
RightTriangle .[#blue]...|> Display

EquilateralTriangle ..|> Shape
EquilateralTriangle .[#blue]...|> Display

KnownShape ..|> Shape
KnownShape .[#blue]...|> Display

Factory .[#blue]...|> Display

@enduml

PlantUML version 1.2018.12(Sun Oct 21 06:15:15 EDT 2018)
(GPL source distribution)
Java Runtime: Java(TM) SE Runtime Environment
JVM: Java HotSpot(TM) 64-Bit Server VM
Java Version: 1.8.0_172-b11
Operating System: Windows 10
OS Version: 10.0
Default Encoding: Cp1252
Language: en
Country: US
--></g></svg>